Coordinates
version=1
nRows=10
nColumns=22
inDegrees=yes

Units are S.I. units (second, meters, Newtons, ...)
If the header above contains a line with 'inDegrees', this indicates whether rotational values are in degrees (yes) or radians (no).

endheader
time	pelvis_tilt	pelvis_list	pelvis_rotation	pelvis_tx	pelvis_ty	pelvis_tz	hip_flexion_r	hip_adduction_r	hip_rotation_r	knee_angle_r	ankle_angle_r	subtalar_angle_r	hip_flexion_l	hip_adduction_l	hip_rotation_l	knee_angle_l	ankle_angle_l	subtalar_angle_l	lumbar_extension	lumbar_bending	lumbar_rotation
      1.81000000	     -1.63920487	     -0.45800508	    -29.27272956	     -0.88600749	      0.90397330	     -0.36546560	     -3.19339055	     -0.27917893	      1.97091024	     -5.34661510	     16.29913109	      2.51027607	      1.50164341	      0.37096966	    -11.67564080	    -15.10526969	     17.15478567	     -2.79734672	     -5.12359586	     -2.09046815	      3.68943404
      1.82000000	     -1.59583654	     -0.65001145	    -29.32084650	     -0.88580985	      0.90423493	     -0.36649367	     -2.95250475	     -0.17814194	      1.99651089	     -5.98597914	     16.35647951	      2.54020627	      1.62617115	      0.26255664	    -11.61257887	    -15.55054186	     17.26846925	     -2.94972389	     -5.39314415	     -1.91354398	      3.75242786
      1.83000000	     -1.64176458	     -0.81556990	    -29.38256235	     -0.88565809	      0.90437209	     -0.36753767	     -2.55678186	     -0.05147747	      2.09060792	     -6.72126529	     16.39746704	      2.59180174	      1.85503006	      0.13553816	    -11.51385905	    -16.00425749	     17.40897496	     -3.19882193	     -5.55261533	     -1.71499862	      3.78355430
      1.84000000	     -1.65130322	     -1.00226660	    -29.44842231	     -0.88547535	      0.90458357	     -0.36862575	     -2.17426060	      0.07410996	      2.17403221	     -7.51269645	     16.43736171	      2.61287317	      2.01127783	      0.01670597	    -11.42357826	    -16.40874645	     17.52132277	     -3.37699652	     -5.76923733	     -1.51279332	      3.85105512
      1.85000000	     -1.67413252	     -1.18585112	    -29.52559211	     -0.88529294	      0.90478549	     -0.36972262	     -1.73084645	      0.20653546	      2.27291581	     -8.38483004	     16.47149043	      2.61807102	      2.16345735	     -0.10186041	    -11.33875068	    -16.78380675	     17.62910299	     -3.53549361	     -5.97241978	     -1.30958384	      3.93696154
      1.86000000	     -1.70517338	     -1.36891603	    -29.61575591	     -0.88511285	      0.90499585	     -0.37082596	     -1.22776278	      0.34565429	      2.38886354	     -9.34586747	     16.49346652	      2.60739206	      2.29295987	     -0.21753396	    -11.25445180	    -17.10576159	     17.71984782	     -3.67803254	     -6.16985100	     -1.10620529	      4.03716853
      1.87000000	     -1.69195809	     -1.55852236	    -29.71194061	     -0.88491121	      0.90528228	     -0.37193912	     -0.71913254	      0.46884976	      2.47960960	    -10.39643117	     16.50569930	      2.58363637	      2.34303471	     -0.31222257	    -11.21353292	    -17.37046332	     17.79890374	     -3.77264597	     -6.42407182	     -0.92659306	      4.15779736
      1.88000000	     -1.75957048	     -1.72108251	    -29.82522859	     -0.88474736	      0.90547053	     -0.37306550	     -0.05513668	      0.61873050	      2.65392692	    -11.55500285	     16.50905689	      2.55118723	      2.45232846	     -0.41442553	    -11.14462979	    -17.57469183	     17.84696580	     -3.90593674	     -6.58305174	     -0.72572125	      4.26828861
      1.89000000	     -1.77385721	     -1.88413241	    -29.94140853	     -0.88456281	      0.90574166	     -0.37419708	      0.61677284	      0.74434751	      2.79808548	    -12.81628459	     16.49945217	      2.51180133	      2.47598467	     -0.48643620	    -11.12409352	    -17.71931263	     17.87826515	     -4.01268732	     -6.80525169	     -0.56048502	      4.38837647
      1.90000000	     -1.78310703	     -2.02906234	    -30.06471475	     -0.88437273	      0.90601855	     -0.37533089	      1.35807388	      0.85816696	      2.95112023	    -14.19071207	     16.47111678	      2.47006500	      2.47397174	     -0.53486386	    -11.13047167	    -17.80997903	     17.88367933	     -4.11782370	     -7.02825072	     -0.41725736	      4.50282773
